<?xml version="1.0" encoding="utf-8"?>
<!-- Generator: Adobe Illustrator 20.0.0, SVG Export Plug-In . SVG Version: 6.00 Build 0)  -->
<!DOCTYPE svg PUBLIC "-//W3C//DTD SVG 1.1//EN" "http://www.w3.org/Graphics/SVG/1.1/DTD/svg11.dtd">
<svg version="1.1" id="Layer_1" xmlns="http://www.w3.org/2000/svg" xmlns:xlink="http://www.w3.org/1999/xlink" x="0px" y="0px"
	 width="40px" height="40px" viewBox="0 0 40 40" style="enable-background:new 0 0 40 40;" xml:space="preserve">
<style type="text/css">
	.st0{fill:#00659B;}
	.st1{opacity:0.5;}
	.st2{fill:#005C88;}
	.st3{fill:#EBEBEB;}
	.st4{fill:#264686;}
	.st5{fill:#BA2E26;}
	.st6{fill:#89C541;}
	.st7{fill:#2A8B6C;}
</style>
<path class="st2" d="M20,25.3c-2.9,0-5.3-2.4-5.3-5.3c0-2.9,2.4-5.3,5.3-5.3s5.3,2.4,5.3,5.3S22.9,25.3,20,25.3z M31.3,21.8v-3.5
	l-2.7-0.4c-0.2-0.8-0.5-1.6-1-2.3l1.9-2.5L27,10.5l-2.5,1.9c-0.7-0.4-1.5-0.7-2.3-0.9l-0.5-3.1h-3.5l-0.5,3.1
	c-0.8,0.2-1.6,0.5-2.3,1l-2.2-1.6l-2.5,2.5l1.6,2.2c-0.4,0.7-0.8,1.5-1,2.4l-2.7,0.4v3.5l2.7,0.4c0.2,0.8,0.5,1.6,1,2.3L10.5,27
	l2.5,2.5l2.5-1.9c0.7,0.4,1.5,0.7,2.3,0.9l0.5,3.1h3.5l0.5-3.1c0.8-0.2,1.6-0.5,2.3-1l2.2,1.6l2.5-2.5l-1.6-2.2
	c0.4-0.7,0.8-1.5,1-2.4L31.3,21.8z"/>
</svg>
