<svg id="Layer_1" xmlns="http://www.w3.org/2000/svg" width="40" height="40" viewBox="0 0 40 40"><style>.st0{fill:#00659b}.st1{opacity:.5}.st2{fill:#fff}.st3{fill:#ebebeb}.st4{fill:#264686}.st5{fill:#ba2e26}.st6{fill:#89c541}.st7{fill:#2a8b6c}</style><circle class="st0" cx="21" cy="20.5" r="17.1"/><path id="path4" class="st2" d="M10 13.7c.2.1.4.1.6.2.3.1.6.2.9.2.3.1.6.2.9.2.3.1.7.2 1 .2.2 0 .4.1.6.1.3.1.5.1.8.1.3.1.7.1 1 .2.6.1 1.3.2 1.9.2.2 0 .5.1.8.1.3 0 .6.1.9.1h2.2v-.2c.1 0 .1 0 .2.1 0 .1 0 .3.1.3s.2 0 .3.1v.1c.1 0 .2-.1.3-.1.2 0 .3.2.5.2.1 0 .2.1.3.1.1 0 .1-.1.2-.1 0 0 0 .1.1.1h.3v.1h.2c-.1.1-.2.1-.3.2-.1 0-.3.1-.4.2-.1 0-.1.2-.2.2-.1.1-.2.2-.3.2.1 0 .1.1.2 0 .1 0 .1-.1.2-.1s.1-.1.2-.1v.1s-.1.1-.1.2h.1c.1-.1.1 0 .2 0s.2-.1.3-.2c.1 0 .2 0 .3-.1.2-.1.3-.3.5-.4h.2s-.1 0-.1.1-.1.1-.1.2 0 .1-.1.2c.1 0 .1-.1.2-.1h.2l.2.2H25.6c.1 0 .1-.1.2-.2.1 0 .2 0 .3-.1.1 0 .1-.1.2-.1v.2c.1 0 .3 0 .4-.1v.2c0 .1.1.1.1.2h-.3-.1-.1-.1-.1s0 .1-.1.1h-.3v.1h-.1c-.1 0-.1 0-.1.1v-.1c0 .2-.1.4-.2.5-.1.1-.1.2-.1.4.1-.1.2-.3.3-.4 0-.1.1-.1.1-.2 0 .1 0 .2-.1.2-.1.1-.1.3-.1.5v.1c-.1 0-.1.1-.1.2s0 .2-.1.4v.4c0 .1-.1.2 0 .3.1.1.1.2.1.3h.2c.1 0 .2-.1.2-.2s0-.2.1-.2c.1-.1 0-.2 0-.3 0-.1 0-.2-.1-.3-.1-.1-.1-.2-.1-.3v-.3s0-.1.1-.1v-.3l.1-.1c0-.1.1-.1.1-.1v-.1.3s.1-.1.1-.2v-.2c0-.1.1-.1.2-.1-.1 0-.1-.1-.1-.1s.1-.1.2-.1c0 0 .1 0 .1.1h.1c.1.1.2.1.4.2.1 0 .1.1.1.2h-.1v.1c.1.1.1.2.1.4-.1.1-.1.2-.1.3h-.1v.2h.1c.1-.1.1-.2.2-.3.1 0 .1-.1.2 0s.1.2.1.2V18.8c.1.1.1.3.1.4h-.1s0-.1-.1-.1c0 .1 0 .2-.1.2h-.1v.2c-.1 0-.1.2-.1.2.1 0 .2 0 .3.1.1 0 .1.1.2.1s.2-.1.2-.1c.2-.1.2-.2.4-.3.1-.1.3-.2.5-.3.1-.1.3-.2.4-.4h.1c0-.1 0-.1-.1-.2 0-.1 0-.1-.1-.2.1 0 .3-.1.4-.1h.3c.1-.1.3 0 .4-.2.1-.1.1-.1.2-.1v-.2c0-.1-.1-.1-.2-.1.1-.1.2-.2.3-.4.1-.1.2-.3.3-.4.2-.1.4-.1.5-.1.2-.1.5-.1.7-.2h.2c0-.1.1-.2.1-.2h.1v-.1h.1c0-.1 0-.2.1-.2 0-.1.1-.1.1-.2s-.1-.2 0-.3v-.3c0-.1.1-.2.1-.2 0-.1.1-.2.1-.3.1 0 .1.1.2.2 0-.1.1-.1.2-.2.1 0 .2.1.3.1V15.8c0 .1 0 .2.1.2v.1h.2c0 .1 0 .2.2.3v-.1c.1 0 .2.1.2.2s-.1.2-.1.2l-.3.3v-.1c-.1 0-.1.1-.2.1v.1h-.1c0-.1-.1-.1-.1-.1v.3c-.1.1-.2.1-.2.2 0 0-.1 0-.1.1h-.1l-.1.1v.1c0 .1-.1.3-.1.4 0 .1 0 .1.1.2 0 .1-.1.2 0 .2 0 .1.1 0 .1 0 .1.1.1.2.2.3h.1l.1-.1v.1c-.1 0-.2.1-.3.1 0 0 0 .1-.1.1 0 0 0-.1-.1-.1v.1h-.1v.1c-.1 0-.1.1-.2.1 0 .1-.1.1-.2.1-.1.1-.2.1-.3.1h-.2c-.1 0-.1.1-.1.1-.1 0-.1.1-.2.1v.1l.1-.1h.2c.1-.1.2-.1.3-.2h.1l-.3.3c-.1.1-.2.1-.2.1-.1 0-.3.1-.3.2h.1c0 .2.1.4 0 .6 0 .1-.1.2-.2.4 0 .1 0 .1-.1.1V21c-.1 0-.2 0-.2-.1l-.1-.1v.1l.1.1c0 .1.1.2.1.2s.1 0 .1.1.1.2.1.2c0 .2-.1.3-.2.4 0 .2 0 .3-.1.5 0 0-.1 0-.1-.1s0-.3.1-.4c0-.1-.1-.2-.2-.2h-.1c0-.1-.1-.1-.1-.2h.1s-.1 0-.1-.1.1-.1.1-.1l-.1-.1V21c0 .1-.1.1-.1.2v.1c-.1.2.1.3.1.4v.1H30.3c.1 0 .2 0 .3.1.1 0 .1.1.2.1v.4s-.1 0-.1-.1c0 .1.1.2.2.3h-.1c0-.1-.1-.1-.1-.1 0 .1.1.2.2.2v-.1c.1 0 .1 0 .2-.1 0 .1 0 .1.1.2s.1.2.2.3c0 0-.1 0-.2-.1-.1.1-.2.1-.3.2.1 0 .1 0 .1-.1v.1c.1-.1.2-.1.3-.1l.1.1c.1 0 0 .1.1.2h-.1v.2h-.1-.1c0 .1 0 .1-.1.2.1 0 .1 0 .2.1 0 .1-.1.2-.2.2s-.2 0-.3.1c-.1.1-.2.1-.2.2s0 .2-.1.3c0 .1-.1 0-.2.1-.1 0-.2.1-.3.1-.1.1-.1.2-.1.3 0 .1-.1.2-.2.2 0 .1-.1.1-.1.2-.1.1-.2.2-.3.2-.1.1-.2.1-.2.2s-.1.2-.1.3c0 .2-.1.4-.1.5 0 .2.1.4.2.6 0 .1.1.2.2.3.1.2.3.3.4.5h-.1c0 .1 0 .2.1.3.1.1.2.3.3.5.2.3.2.6.2.9h-.1c0 .1-.1.2 0 .2 0 .1-.1.1-.1.1h-.2-.1c-.1-.1-.1-.2-.1-.3l-.2-.2h-.2c-.1-.1-.1-.1-.1-.2s-.1-.1-.1-.2c-.1-.1-.1-.2-.1-.3h-.1v.2c-.1 0-.1-.1-.1-.2-.1-.1-.2-.2-.2-.3.1-.1.1-.2.1-.3h-.2v.1h.1v.1c-.1-.1-.1-.2-.1-.3v-.4s0-.1-.1-.1h-.1-.1c-.1 0-.1-.1-.2-.2 0-.1-.1-.1-.2-.2.3-.3.1-.3 0-.3 0 0 0 .1-.1.1s-.1.1-.2.2h-.3c0-.1 0-.1-.1-.1 0-.1-.2-.2-.3-.2h-.1c-.2 0-.3 0-.5.1-.2 0-.3.1-.5.1h.1c0-.1-.1-.2-.2-.3 0 .1 0 .2-.1.2s-.2.1-.3 0H24.8s0 .1-.1.1-.2.1-.1.2h.1s0-.1.1-.1h.1v.1h.1s0 .1-.1.1c0 0-.1 0-.1.1s0 .1.1.1.2 0 .3.1c0 .1-.1.1-.2.1-.1-.1-.2-.1-.3-.1v-.1c-.1 0-.1.1-.1.2l-.1.1v-.1h-.2v.1c-.1 0-.3-.1-.4-.1l.1-.1c-.1 0-.1 0-.2-.1v-.1h-.2c0-.1-.2 0-.2 0h.1s-.1 0-.1.1h-.3c-.1 0-.2-.1-.2-.1h-.3-.1c-.1 0-.2 0-.3.1-.1 0-.2.1-.2.1l-.1.1c-.1.1-.2.2-.4.3-.2.1-.4.2-.5.3-.1.1-.1.1-.2.1-.1.1-.2.3-.3.4 0 .1-.1.2-.1.3V29.6c0 .1 0 .2.1.2.1.1 0 .2-.1.1-.1 0-.2-.1-.4-.1-.1 0-.2-.1-.3-.1-.1 0-.2-.1-.3-.1-.1 0-.1-.1-.1-.2s-.1-.2-.1-.3V29h-.1v-.2c-.1 0-.1-.1-.2-.1 0-.1-.1-.2-.1-.2s-.1 0-.1-.1c-.1-.2-.1-.4-.2-.5-.1-.2-.2-.3-.3-.4-.1 0-.3-.1-.4-.1-.1 0-.1 0-.1-.1v.1c-.1 0-.2 0-.2.1-.1.1-.1.3-.2.4-.1-.1-.2-.1-.4-.2s-.3-.2-.4-.3c0-.1 0-.2-.1-.3 0-.1-.1-.2-.2-.3 0-.1-.1-.1-.2-.1-.1-.1-.2-.2-.3-.4 0 0-.1 0-.1-.1s-.1-.1-.1-.2h-.1-.1-.1-.1-.1-.1-.1-.1v.3h-.5c-.1 0-.2-.1-.4-.1h-.1-.1-.1-.1-.1c-.1 0-.2-.1-.3-.1-.2-.1-.4-.2-.6-.4-.1 0-.1-.1-.2-.1-.2-.1-.5-.3-.7-.4-.1 0-.1-.1-.2-.1l.1-.1h-.2-.1c-.3 0-.6-.1-1-.1 0-.2 0-.4-.1-.6-.1-.1-.1-.2-.3-.3h-.1v-.1c-.1-.1-.1-.1-.2-.1-.2 0-.1-.2-.3-.3-.1 0-.2-.1-.3-.1h-.2l-.1-.1v-.1c0-.1.1-.2 0-.3 0-.1-.1-.2-.2-.3-.1-.1-.1-.2-.1-.3 0-.1-.2-.2-.2-.3v-.1l.1-.1c0-.1-.1-.1-.2-.2-.1-.2-.1-.3 0-.5H8c0 .1 0 .2.1.2 0-.1 0-.2-.1-.3h.1l-.1-.1c0 .1 0 .1-.1.2-.1 0-.1-.1-.2-.1-.1-.1 0-.2 0-.3 0-.1-.1-.2-.2-.3-.1-.1 0-.2 0-.2 0-.1.1-.2.1-.2.4-.9.1-1 .1-1.2 0-.1.1-.1.1-.2.1-.1.2-.2.2-.3.1-.2 0-.3.1-.5 0-.1 0-.1-.1-.2v-.1c0-.1 0-.3.1-.4.2-.3.3-.5.4-.8.1-.2.1-.4.2-.5v-.1c0-.1.1-.2.1-.4h.1v-.1h-.1l-.1-.1V15h.1v-.1l-.1-.1c0-.1.1-.1.1-.1-.1-.1-.1-.3-.1-.5v-.3-.2c.1.1.2.2.4.3.1.1.3.1.4.1 0-.1.1-.1.1-.2v.2c.1 0 .1.1.1.2 0-.1-.1-.2 0-.3v-.3c.4.1.3.1.3 0z"/><path class="st7" d="M7.7 14.5c-3.4 0-6.2-2.8-6.2-6.2C1.5 4.8 4.3 2 7.7 2 11.2 2 14 4.8 14 8.3c0 3.4-2.8 6.2-6.3 6.2zM5.1 8.1c-.1 0-.2 0-.2.1-.1.1-.1.3 0 .5l2 1.9 3.9-3.9c.1-.1.1-.3 0-.5-.1-.1-.1-.1-.2-.1s-.2 0-.2.1L6.8 9.6 5.3 8.2c-.1-.1-.2-.1-.2-.1z"/><path class="st2" d="M7.7 2.5c3.2 0 5.8 2.6 5.8 5.8 0 3.2-2.6 5.8-5.8 5.8-3.2 0-5.8-2.6-5.8-5.8 0-3.2 2.6-5.8 5.8-5.8M6.8 9L5.6 7.9c-.2-.2-.3-.2-.5-.2s-.4.1-.5.2c-.3.3-.3.8 0 1.1l2.2 2.2L11 7c.3-.3.3-.8 0-1.1-.1-.1-.3-.2-.5-.2s-.4.1-.5.2L6.8 9m.9-7.4a6.7 6.7 0 1 0 0 13.4 6.7 6.7 0 0 0 0-13.4z"/></svg>