<svg id="Layer_1" xmlns="http://www.w3.org/2000/svg" width="40" height="40" viewBox="0 0 40 40"><style>.st0{fill:#ebebeb}.st1{fill:#264686}.st2{fill:#ba2e26}.st3{fill:#89c541}.st4{fill:#2a8b6c}.st5{fill:#fff}</style><circle class="st0" cx="20.9" cy="20.5" r="17.1"/><path class="st1" d="M18.9 12.2h4v16.5h-4z"/><path class="st2" d="M12.9 16.3h4v12.4h-4z"/><path class="st3" d="M24.9 20.4h4v8.3h-4z"/><g><path class="st4" d="M7.8 14.5c-3.4 0-6.2-2.8-6.2-6.2C1.6 4.8 4.4 2 7.8 2S14 4.8 14 8.2c.1 3.5-2.7 6.3-6.2 6.3zM5.1 8.1c-.1 0-.1 0-.2.1s-.1.3 0 .5l2 1.9 3.9-3.9c.1-.1.1-.3 0-.5-.1-.1-.1-.1-.2-.1s-.2 0-.2.1L6.9 9.6 5.4 8.2c-.1-.1-.2-.1-.3-.1z"/><path class="st5" d="M7.8 2.5c3.2 0 5.8 2.6 5.8 5.8s-2.6 5.8-5.8 5.8S2 11.5 2 8.3s2.6-5.8 5.8-5.8M6.9 9L5.7 7.9c-.2-.2-.4-.2-.6-.2-.2 0-.4.1-.5.2-.3.3-.3.8 0 1.1l2.2 2.2L11 7c.3-.3.3-.8 0-1.1-.1-.1-.3-.2-.5-.2s-.4.1-.5.2L6.9 9m.9-7.4a6.7 6.7 0 1 0 0 13.4 6.7 6.7 0 0 0 0-13.4z"/></g></svg>