<svg id="Layer_1" xmlns="http://www.w3.org/2000/svg" width="40" height="40" viewBox="0 0 40 40"><style>.st0{fill:#00659b}.st1{opacity:.5}.st2{fill:#fff}.st3{fill:#ebebeb}.st4{fill:#264686}.st5{fill:#ba2e26}.st6{fill:#89c541}.st7{fill:#2a8b6c}</style><circle class="st0" cx="21" cy="20.5" r="17.1"/><g class="st1"><path class="st2" d="M7.7 17.3h26.7v.3H7.7zM7.7 20.3h26.7v.3H7.7zM7.7 23.3h26.7v.3H7.7z"/><g><path class="st2" d="M34.4 17.3H7.7v.3h26.7v-.3zM34.4 20.3H7.7v.3h26.7v-.3zM34.4 23.3H7.7v.3h26.7v-.3z"/></g></g><path class="st2" d="M18.9 11h3.8v18.8h-3.8zM25.6 13.3h3.8v14.4h-3.8zM12.7 15.3h3.8v10.3h-3.8z"/><g><path class="st7" d="M7.7 14.5c-3.4 0-6.2-2.8-6.2-6.2C1.4 4.8 4.2 2 7.7 2c3.4 0 6.2 2.8 6.2 6.2 0 3.5-2.8 6.3-6.2 6.3zM5 8.1c-.1 0-.2 0-.2.1-.1.1-.1.3 0 .5l2 1.9 3.9-3.9c.1-.1.1-.3 0-.5-.1-.1-.1-.1-.2-.1s-.2 0-.2.1L6.7 9.6 5.2 8.1H5z"/><path class="st2" d="M7.7 2.4c3.2 0 5.8 2.6 5.8 5.8 0 3.2-2.6 5.8-5.8 5.8-3.2 0-5.8-2.6-5.8-5.8 0-3.2 2.6-5.8 5.8-5.8M6.7 9L5.5 7.8c-.1-.1-.3-.2-.5-.2s-.4.1-.5.2c-.3.3-.3.8 0 1.1l2.2 2.2L10.9 7c.3-.3.3-.8 0-1.1-.1-.1-.3-.2-.5-.2s-.4.1-.5.2L6.7 9m1-7.4a6.7 6.7 0 1 0 6.7 6.7c-.1-3.7-3.1-6.7-6.7-6.7z"/></g></svg>